<?xml version="1.0" standalone="no"?>
<!DOCTYPE svg PUBLIC "-//W3C//DTD SVG 20010904//EN"
 "http://www.w3.org/TR/2001/REC-SVG-20010904/DTD/svg10.dtd">
<svg version="1.0" xmlns="http://www.w3.org/2000/svg"
 width="213.000000pt" height="213.000000pt" viewBox="0 0 213.000000 213.000000"
 preserveAspectRatio="xMidYMid meet">
<metadata>
Created by potrace 1.14, written by Peter Selinger 2001-2017
</metadata>
<g transform="translate(0.000000,213.000000) scale(0.100000,-0.100000)"
fill="#000000" stroke="none">
<path d="M357 1426 c-51 -19 -67 -34 -89 -83 -30 -69 -15 -105 87 -200 90 -85
99 -107 47 -120 -23 -5 -84 4 -149 23 -21 6 -21 4 -16 -58 3 -34 7 -65 9 -67
7 -8 93 -20 148 -21 114 0 183 39 207 118 18 62 -6 109 -98 184 -80 65 -91 92
-45 109 24 9 68 5 131 -12 11 -3 14 9 12 56 -1 33 -6 64 -10 68 -16 16 -193
18 -234 3z"/>
<path d="M911 1418 c-6 -7 -65 -100 -129 -207 -143 -238 -186 -288 -279 -324
-135 -53 -226 -70 -347 -65 -61 3 -120 9 -131 13 -12 5 -17 4 -12 -1 5 -5 23
-15 40 -21 31 -13 31 -13 -13 -7 -56 8 -49 0 21 -26 l54 -20 -45 4 -45 5 34
-15 c126 -56 308 -64 454 -20 100 30 147 52 231 109 123 83 358 176 375 149
28 -44 197 -249 199 -242 2 5 -15 43 -38 84 l-42 76 91 0 91 0 0 40 c0 37 2
40 28 41 l27 1 -27 10 c-23 8 -28 16 -28 43 0 63 3 65 106 65 l94 0 0 29 c0
16 3 43 6 60 l7 31 -102 0 -101 0 0 40 0 40 120 0 120 0 0 60 0 60 -198 0
-199 0 -6 -97 c-4 -54 -7 -138 -7 -187 l0 -88 -47 7 c-27 4 -51 10 -54 13 -4
4 -42 75 -85 157 -98 191 -124 220 -163 183z m83 -267 c25 -33 46 -62 46 -65
0 -3 -10 -6 -22 -6 -13 0 -57 -9 -98 -20 -41 -11 -76 -20 -77 -20 -2 0 21 38
50 85 28 47 52 85 53 85 1 0 22 -27 48 -59z m256 -185 c0 -48 -14 -52 -33 -10
-22 44 -22 44 8 44 22 0 25 -4 25 -34z"/>
<path d="M1697 1253 c-4 -98 -10 -215 -13 -260 l-7 -83 210 0 c236 0 223 -4
223 76 l0 44 -125 0 -125 0 0 40 0 40 104 0 c117 0 116 0 116 76 l0 44 -105 0
-105 0 0 40 0 40 124 0 c139 0 136 -2 136 76 l0 44 -213 0 -214 0 -6 -177z"/>
</g>
</svg>
